<?xml version="1.0" standalone="no"?><!DOCTYPE svg PUBLIC "-//W3C//DTD SVG 1.1//EN" "http://www.w3.org/Graphics/SVG/1.1/DTD/svg11.dtd"><svg class="icon" width="200px" height="200.00px" viewBox="0 0 1024 1024" version="1.1" xmlns="http://www.w3.org/2000/svg"><path fill="#333333" d="M400.886343 64.633043c-17.22429 0-31.179117 13.960966-31.179117 31.179117l0 30.4188c0 17.219173 13.95585 31.179117 31.179117 31.179117s31.179117-13.960966 31.179117-31.179117L432.06546 95.812159C432.066483 78.594009 418.110633 64.633043 400.886343 64.633043zM623.457488 64.633043c-17.22429 0-31.179117 13.960966-31.179117 31.179117l0 30.4188c0 17.219173 13.95585 31.179117 31.179117 31.179117s31.179117-13.960966 31.179117-31.179117L654.636604 95.812159C654.637628 78.594009 640.681778 64.633043 623.457488 64.633043zM425.858084 227.371474c11.19497 18.015306 41.897226 48.504714 86.007863 48.504714 43.886533 0 74.975599-30.261211 86.424348-48.14451 9.205663-14.372336 5.024433-33.295314-9.226129-42.679032-14.280238-9.398044-33.534767-5.384637-43.085284 8.744151-0.132006 0.192382-13.59053 19.721157-34.112935 19.721157-19.954471 0-32.367175-18.066471-33.209356-19.335371-9.145287-14.391778-28.215622-18.781762-42.759873-9.749038C421.270603 193.517435 416.774195 212.741265 425.858084 227.371474zM356.276333 600.537476c-17.219173 0-31.179117 13.95585-31.179117 31.179117s13.960966 31.179117 31.179117 31.179117l124.713396 0 0 98.075713c0 17.22429 13.95585 31.179117 31.179117 31.179117s31.179117-13.95585 31.179117-31.179117l0-98.075713 124.718513 0c17.22429 0 31.179117-13.95585 31.179117-31.179117s-13.95585-31.179117-31.179117-31.179117L543.348985 600.537476l0-83.145675 124.718513 0c17.22429 0 31.179117-13.95585 31.179117-31.179117s-13.95585-31.179117-31.179117-31.179117l-80.628342 0 67.931159-67.931159c12.17939-12.174274 12.17939-31.915897 0-44.090171-12.17939-12.17939-31.91078-12.17939-44.090171 0l-99.106182 99.106182-99.106182-99.106182c-12.17939-12.17939-31.91078-12.17939-44.090171 0-12.17939 12.174274-12.17939 31.915897 0 44.090171l67.931159 67.931159-80.633459 0c-17.219173 0-31.179117 13.95585-31.179117 31.179117s13.960966 31.179117 31.179117 31.179117l124.713396 0 0 83.145675L356.276333 600.537476zM849.687976 220.530672l53.032844 0c17.22429 0 31.179117-13.960966 31.179117-31.179117s-13.95585-31.179117-31.179117-31.179117l-131.965567 0c-17.22429 0-31.179117 13.960966-31.179117 31.179117l0 132.173299c0 17.219173 13.95585 31.179117 31.179117 31.179117s31.179117-13.960966 31.179117-31.179117l0-60.920488c131.761929 150.887522 125.889175 380.914476-17.812691 524.625552-149.909242 149.929708-393.885905 149.939941-543.830963 0-149.934824-149.939941-149.934824-393.901255 0-543.841196 12.174274-12.174274 12.174274-31.915897-0.005117-44.095287-12.169157-12.169157-31.915897-12.174274-44.095287 0.005117-174.243463 174.248579-174.243463 457.772958 0.005117 632.021537 87.12429 87.12429 201.570855 130.686435 316.00821 130.686435 114.446565 0 228.883921-43.562145 316.00821-130.686435C994.938104 662.594857 1002.016313 395.894655 849.687976 220.530672z" /></svg>